<svg xmlns="http://www.w3.org/2000/svg" xmlns:xlink="http://www.w3.org/1999/xlink" width="500" zoomAndPan="magnify" viewBox="0 0 375 374.999991" height="500" preserveAspectRatio="xMidYMid meet" version="1.0"><defs><clipPath id="287474e940"><path d="M 33 282.125 L 205.5 282.125 L 205.5 301.632812 L 33 301.632812 Z M 33 282.125 " clip-rule="nonzero"/></clipPath><clipPath id="30d04f46ba"><path d="M 54 73.179688 L 201 73.179688 L 201 295 L 54 295 Z M 54 73.179688 " clip-rule="nonzero"/></clipPath><clipPath id="ea6b6f7e4a"><path d="M 205.644531 282.125 L 332.941406 282.125 L 332.941406 301.632812 L 205.644531 301.632812 Z M 205.644531 282.125 " clip-rule="nonzero"/></clipPath></defs><g clip-path="url(#287474e940)"><path fill="#4a90e2" d="M 33 298.054688 C 75.941406 291.726562 136.371094 282.097656 186.757812 282.695312 C 237.144531 283.296875 310.015625 296.441406 334.558594 301.632812 C 218.535156 288.050781 160.335938 289.117188 33 298.054688 " fill-opacity="1" fill-rule="evenodd"/></g><g clip-path="url(#30d04f46ba)"><path fill="#4a90e2" d="M 195.769531 103.957031 C 189.546875 102.785156 185.199219 102.027344 180.308594 101.9375 C 175.769531 99.367188 173.667969 91.054688 163.222656 90.332031 C 160.144531 90.050781 162.640625 73.320312 161.433594 73.449219 C 158.421875 73.765625 145.734375 92.1875 145.199219 92.855469 C 139.332031 102.027344 138.625 113.0625 132.855469 122.96875 C 128.972656 129.640625 126.496094 136.351562 116.738281 149.078125 C 75.320312 209.316406 46.617188 208.199219 55.699219 293.859375 C 55.890625 295.6875 146.695312 292.433594 147.734375 281.933594 C 148.777344 271.4375 108.597656 278.71875 112.09375 277.003906 C 160.5625 253.257812 139.824219 224.070312 132.617188 223.265625 C 135.558594 218.917969 140.324219 215.558594 143.402344 218.871094 C 149.789062 227.339844 154.394531 260.988281 159.769531 271.394531 C 165.140625 281.804688 163.222656 287.167969 188.289062 282.066406 C 183.304688 275.277344 184.976562 279.085938 178.5625 276.113281 C 174.816406 275.289062 169.480469 270.976562 167.953125 268.089844 C 165.246094 259.835938 162.476562 204.945312 163.585938 198.121094 C 164.972656 188.214844 168.351562 177.867188 163.5625 156.769531 C 161.816406 149.078125 163.140625 147.054688 165.578125 141.304688 C 169.035156 133.625 171.949219 126.605469 180.738281 123.234375 C 186.640625 121.390625 191.722656 123.289062 196.832031 119.699219 C 201.460938 117.378906 203.546875 102.523438 195.769531 103.957031 " fill-opacity="1" fill-rule="nonzero"/></g><g clip-path="url(#ea6b6f7e4a)"><path fill="#00bfa6" d="M 31.441406 298.054688 C 74.382812 291.726562 134.8125 282.097656 185.199219 282.695312 C 235.585938 283.296875 308.453125 296.441406 333 301.632812 C 216.976562 288.050781 158.777344 289.117188 31.441406 298.054688 " fill-opacity="1" fill-rule="evenodd"/></g><path fill="#00bfa6" d="M 221.621094 161.019531 C 223.472656 163.050781 223.675781 163.597656 222.789062 166.878906 C 221.738281 171.714844 220.199219 176.234375 219.40625 181.09375 C 217.328125 190.503906 216.617188 201.621094 220.488281 209.085938 C 221.570312 211.023438 222.460938 212.429688 223.292969 214.335938 C 230.417969 227.636719 228.425781 233.917969 226.839844 248.324219 C 226.242188 253.734375 225.902344 259.171875 225.050781 264.542969 C 224.03125 273.796875 224.058594 277.03125 218.539062 277.46875 C 216.199219 277.457031 213.078125 277.382812 212.824219 279.695312 C 212.230469 282.75 213.945312 283.722656 215.375 284.929688 C 214.316406 287.136719 214.746094 286.550781 215.539062 287.707031 C 220.886719 287.96875 226.273438 288.257812 231.675781 288.585938 C 234.503906 286.558594 236.777344 283.515625 238.671875 280.363281 L 243.835938 271.300781 C 244.066406 273.933594 244.355469 276.042969 245.417969 278.253906 C 245.847656 279.082031 246.503906 280.191406 247.21875 280.796875 C 247.417969 281.332031 247.652344 281.621094 248.109375 282.1875 C 248.566406 282.761719 248.851562 282.535156 249.023438 283.335938 C 243.152344 282.921875 235.144531 282.496094 234.964844 288.792969 C 259.5 290.351562 284.300781 292.6875 307.417969 296.375 C 310.585938 275.335938 314.789062 219.585938 292.300781 195.414062 C 288.195312 191.429688 274.691406 182.773438 266.273438 164.644531 C 265.273438 161.925781 266.527344 162.332031 266.558594 157.382812 C 266.71875 151.15625 264.914062 143.929688 262.078125 138.921875 C 259.933594 134.78125 258.53125 133.320312 254.152344 130.496094 C 252.210938 129.234375 251.003906 128.324219 250.203125 126.15625 C 249 122.902344 245.875 111.089844 241.183594 111.089844 C 237.808594 110.984375 237.023438 120.535156 236.417969 123.589844 C 235.144531 132.828125 235.878906 128.484375 227.769531 131.234375 C 222.363281 132.984375 225.117188 134.753906 219.996094 138.609375 C 216.539062 141.617188 209.789062 138.367188 211.167969 147.105469 C 212.835938 155.632812 218.636719 157.320312 221.621094 161.019531 " fill-opacity="1" fill-rule="nonzero"/></svg>