<svg xmlns="http://www.w3.org/2000/svg" xmlns:xlink="http://www.w3.org/1999/xlink" width="500" zoomAndPan="magnify" viewBox="0 0 375 374.999991" height="500" preserveAspectRatio="xMidYMid meet" version="1.0"><defs><g/><clipPath id="38a073a4c3"><path d="M 99.671875 199.328125 L 193.421875 199.328125 L 193.421875 209.945312 L 99.671875 209.945312 Z M 99.671875 199.328125 " clip-rule="nonzero"/></clipPath><clipPath id="7f24bc2c82"><path d="M 111 85.570312 L 192 85.570312 L 192 206 L 111 206 Z M 111 85.570312 " clip-rule="nonzero"/></clipPath><clipPath id="dc33350900"><path d="M 193.667969 199.328125 L 262.667969 199.328125 L 262.667969 209.945312 L 193.667969 209.945312 Z M 193.667969 199.328125 " clip-rule="nonzero"/></clipPath></defs><g fill="#fea910" fill-opacity="0.4"><g transform="translate(63.864279, 260.258986)"><g><path d="M 4.421875 2.296875 C 4.398438 1.566406 4.390625 0.828125 4.390625 0.078125 C 4.390625 -0.660156 4.390625 -1.394531 4.390625 -2.125 C 4.390625 -5.488281 4.457031 -8.753906 4.59375 -11.921875 C 4.726562 -15.085938 4.890625 -18.113281 5.078125 -21 C 4.160156 -20.769531 3.394531 -20.550781 2.78125 -20.34375 L 1.4375 -25.84375 C 2.5625 -26.1875 3.742188 -26.488281 4.984375 -26.75 C 6.234375 -27.007812 7.457031 -27.222656 8.65625 -27.390625 C 9.863281 -27.566406 10.972656 -27.691406 11.984375 -27.765625 C 13.003906 -27.847656 13.847656 -27.890625 14.515625 -27.890625 C 15.222656 -27.890625 16.097656 -27.832031 17.140625 -27.71875 C 18.179688 -27.601562 19.253906 -27.367188 20.359375 -27.015625 C 21.472656 -26.660156 22.507812 -26.128906 23.46875 -25.421875 C 24.425781 -24.710938 25.207031 -23.757812 25.8125 -22.5625 C 26.425781 -21.363281 26.734375 -19.859375 26.734375 -18.046875 C 26.734375 -16.171875 26.320312 -14.609375 25.5 -13.359375 C 24.675781 -12.117188 23.585938 -11.125 22.234375 -10.375 C 20.878906 -9.632812 19.390625 -9.101562 17.765625 -8.78125 C 16.148438 -8.457031 14.550781 -8.296875 12.96875 -8.296875 C 11.957031 -8.296875 11 -8.34375 10.09375 -8.4375 C 10.0625 -7.34375 10.046875 -6.257812 10.046875 -5.1875 C 10.046875 -3.71875 10.054688 -2.359375 10.078125 -1.109375 C 10.109375 0.128906 10.15625 1.21875 10.21875 2.15625 Z M 14.34375 -22.265625 C 13.75 -22.265625 13.132812 -22.238281 12.5 -22.1875 C 11.875 -22.144531 11.253906 -22.09375 10.640625 -22.03125 C 10.523438 -20.8125 10.429688 -19.492188 10.359375 -18.078125 C 10.296875 -16.660156 10.238281 -15.207031 10.1875 -13.71875 C 11.03125 -13.65625 11.910156 -13.625 12.828125 -13.625 C 18.316406 -13.625 21.0625 -15.25 21.0625 -18.5 C 21.0625 -19.78125 20.515625 -20.726562 19.421875 -21.34375 C 18.328125 -21.957031 16.632812 -22.265625 14.34375 -22.265625 Z M 14.34375 -22.265625 "/></g></g></g><g fill="#fea910" fill-opacity="0.4"><g transform="translate(92.068934, 260.258986)"><g><path d="M 12.015625 2.75 C 9.816406 2.75 7.882812 2.316406 6.21875 1.453125 C 4.5625 0.597656 3.269531 -0.59375 2.34375 -2.125 C 1.414062 -3.65625 0.953125 -5.429688 0.953125 -7.453125 C 0.953125 -8.660156 1.160156 -9.929688 1.578125 -11.265625 C 1.992188 -12.609375 2.65625 -13.863281 3.5625 -15.03125 C 4.476562 -16.195312 5.6875 -17.144531 7.1875 -17.875 C 8.6875 -18.601562 10.507812 -18.96875 12.65625 -18.96875 C 14.21875 -18.96875 15.53125 -18.796875 16.59375 -18.453125 C 17.65625 -18.117188 18.519531 -17.675781 19.1875 -17.125 C 19.863281 -16.570312 20.378906 -15.988281 20.734375 -15.375 C 21.097656 -14.757812 21.34375 -14.171875 21.46875 -13.609375 C 21.59375 -13.046875 21.65625 -12.582031 21.65625 -12.21875 C 21.65625 -10 20.722656 -8.285156 18.859375 -7.078125 C 16.992188 -5.878906 14.359375 -5.28125 10.953125 -5.28125 C 10.171875 -5.28125 9.429688 -5.3125 8.734375 -5.375 C 8.035156 -5.445312 7.390625 -5.53125 6.796875 -5.625 C 7.234375 -4.476562 7.953125 -3.632812 8.953125 -3.09375 C 9.960938 -2.5625 11.003906 -2.296875 12.078125 -2.296875 C 13.628906 -2.296875 15 -2.578125 16.1875 -3.140625 C 17.382812 -3.703125 18.507812 -4.566406 19.5625 -5.734375 L 22.609375 -1.34375 C 21.878906 -0.75 21.0625 -0.132812 20.15625 0.5 C 19.25 1.144531 18.144531 1.679688 16.84375 2.109375 C 15.539062 2.535156 13.929688 2.75 12.015625 2.75 Z M 12.765625 -13.828125 C 11.410156 -13.828125 10.21875 -13.484375 9.1875 -12.796875 C 8.164062 -12.109375 7.414062 -11.207031 6.9375 -10.09375 C 7.5 -10 8.0625 -9.921875 8.625 -9.859375 C 9.1875 -9.804688 9.742188 -9.78125 10.296875 -9.78125 C 10.796875 -9.78125 11.367188 -9.820312 12.015625 -9.90625 C 12.671875 -10 13.3125 -10.140625 13.9375 -10.328125 C 14.570312 -10.515625 15.09375 -10.75 15.5 -11.03125 C 15.914062 -11.3125 16.125 -11.648438 16.125 -12.046875 C 16.125 -12.222656 16.03125 -12.445312 15.84375 -12.71875 C 15.664062 -13 15.335938 -13.253906 14.859375 -13.484375 C 14.378906 -13.710938 13.679688 -13.828125 12.765625 -13.828125 Z M 12.765625 -13.828125 "/></g></g></g><g fill="#fea910" fill-opacity="0.4"><g transform="translate(115.675753, 260.258986)"><g><path d="M 11.9375 2.703125 C 10.5625 2.703125 9.472656 2.410156 8.671875 1.828125 C 7.878906 1.242188 7.296875 0.441406 6.921875 -0.578125 C 6.554688 -1.609375 6.320312 -2.785156 6.21875 -4.109375 C 6.125 -5.441406 6.078125 -6.835938 6.078125 -8.296875 C 6.078125 -9.804688 6.132812 -11.375 6.25 -13 C 4.71875 -12.800781 3.238281 -12.539062 1.8125 -12.21875 L 0.75 -17.609375 C 2.65625 -18.109375 4.679688 -18.472656 6.828125 -18.703125 C 6.984375 -19.867188 7.15625 -21.097656 7.34375 -22.390625 C 7.53125 -23.679688 7.734375 -25.046875 7.953125 -26.484375 L 13.859375 -25.96875 C 13.585938 -24.78125 13.347656 -23.597656 13.140625 -22.421875 C 12.929688 -21.242188 12.75 -20.109375 12.59375 -19.015625 C 13.875 -19.015625 15.078125 -18.984375 16.203125 -18.921875 C 17.335938 -18.867188 18.390625 -18.769531 19.359375 -18.625 L 18.671875 -13.25 C 17.867188 -13.332031 17.035156 -13.390625 16.171875 -13.421875 C 15.316406 -13.460938 14.457031 -13.484375 13.59375 -13.484375 C 13.0625 -13.484375 12.535156 -13.472656 12.015625 -13.453125 C 11.867188 -11.785156 11.78125 -10.351562 11.75 -9.15625 C 11.71875 -7.96875 11.703125 -7.125 11.703125 -6.625 C 11.703125 -5.363281 11.773438 -4.457031 11.921875 -3.90625 C 12.066406 -3.363281 12.3125 -3.09375 12.65625 -3.09375 C 13.050781 -3.09375 13.488281 -3.222656 13.96875 -3.484375 C 14.445312 -3.742188 14.921875 -4.101562 15.390625 -4.5625 C 15.859375 -5.019531 16.253906 -5.507812 16.578125 -6.03125 L 19.21875 -0.515625 C 16.945312 1.628906 14.519531 2.703125 11.9375 2.703125 Z M 11.9375 2.703125 "/></g></g></g><g fill="#4a90e2" fill-opacity="1"><g transform="translate(63.864279, 260.258986)"><g><path d="M 4.421875 2.296875 C 4.398438 1.566406 4.390625 0.828125 4.390625 0.078125 C 4.390625 -0.660156 4.390625 -1.394531 4.390625 -2.125 C 4.390625 -5.488281 4.457031 -8.753906 4.59375 -11.921875 C 4.726562 -15.085938 4.890625 -18.113281 5.078125 -21 C 4.160156 -20.769531 3.394531 -20.550781 2.78125 -20.34375 L 1.4375 -25.84375 C 2.5625 -26.1875 3.742188 -26.488281 4.984375 -26.75 C 6.234375 -27.007812 7.457031 -27.222656 8.65625 -27.390625 C 9.863281 -27.566406 10.972656 -27.691406 11.984375 -27.765625 C 13.003906 -27.847656 13.847656 -27.890625 14.515625 -27.890625 C 15.222656 -27.890625 16.097656 -27.832031 17.140625 -27.71875 C 18.179688 -27.601562 19.253906 -27.367188 20.359375 -27.015625 C 21.472656 -26.660156 22.507812 -26.128906 23.46875 -25.421875 C 24.425781 -24.710938 25.207031 -23.757812 25.8125 -22.5625 C 26.425781 -21.363281 26.734375 -19.859375 26.734375 -18.046875 C 26.734375 -16.171875 26.320312 -14.609375 25.5 -13.359375 C 24.675781 -12.117188 23.585938 -11.125 22.234375 -10.375 C 20.878906 -9.632812 19.390625 -9.101562 17.765625 -8.78125 C 16.148438 -8.457031 14.550781 -8.296875 12.96875 -8.296875 C 11.957031 -8.296875 11 -8.34375 10.09375 -8.4375 C 10.0625 -7.34375 10.046875 -6.257812 10.046875 -5.1875 C 10.046875 -3.71875 10.054688 -2.359375 10.078125 -1.109375 C 10.109375 0.128906 10.15625 1.21875 10.21875 2.15625 Z M 14.34375 -22.265625 C 13.75 -22.265625 13.132812 -22.238281 12.5 -22.1875 C 11.875 -22.144531 11.253906 -22.09375 10.640625 -22.03125 C 10.523438 -20.8125 10.429688 -19.492188 10.359375 -18.078125 C 10.296875 -16.660156 10.238281 -15.207031 10.1875 -13.71875 C 11.03125 -13.65625 11.910156 -13.625 12.828125 -13.625 C 18.316406 -13.625 21.0625 -15.25 21.0625 -18.5 C 21.0625 -19.78125 20.515625 -20.726562 19.421875 -21.34375 C 18.328125 -21.957031 16.632812 -22.265625 14.34375 -22.265625 Z M 14.34375 -22.265625 "/></g></g></g><g fill="#4a90e2" fill-opacity="1"><g transform="translate(92.068934, 260.258986)"><g><path d="M 12.015625 2.75 C 9.816406 2.75 7.882812 2.316406 6.21875 1.453125 C 4.5625 0.597656 3.269531 -0.59375 2.34375 -2.125 C 1.414062 -3.65625 0.953125 -5.429688 0.953125 -7.453125 C 0.953125 -8.660156 1.160156 -9.929688 1.578125 -11.265625 C 1.992188 -12.609375 2.65625 -13.863281 3.5625 -15.03125 C 4.476562 -16.195312 5.6875 -17.144531 7.1875 -17.875 C 8.6875 -18.601562 10.507812 -18.96875 12.65625 -18.96875 C 14.21875 -18.96875 15.53125 -18.796875 16.59375 -18.453125 C 17.65625 -18.117188 18.519531 -17.675781 19.1875 -17.125 C 19.863281 -16.570312 20.378906 -15.988281 20.734375 -15.375 C 21.097656 -14.757812 21.34375 -14.171875 21.46875 -13.609375 C 21.59375 -13.046875 21.65625 -12.582031 21.65625 -12.21875 C 21.65625 -10 20.722656 -8.285156 18.859375 -7.078125 C 16.992188 -5.878906 14.359375 -5.28125 10.953125 -5.28125 C 10.171875 -5.28125 9.429688 -5.3125 8.734375 -5.375 C 8.035156 -5.445312 7.390625 -5.53125 6.796875 -5.625 C 7.234375 -4.476562 7.953125 -3.632812 8.953125 -3.09375 C 9.960938 -2.5625 11.003906 -2.296875 12.078125 -2.296875 C 13.628906 -2.296875 15 -2.578125 16.1875 -3.140625 C 17.382812 -3.703125 18.507812 -4.566406 19.5625 -5.734375 L 22.609375 -1.34375 C 21.878906 -0.75 21.0625 -0.132812 20.15625 0.5 C 19.25 1.144531 18.144531 1.679688 16.84375 2.109375 C 15.539062 2.535156 13.929688 2.75 12.015625 2.75 Z M 12.765625 -13.828125 C 11.410156 -13.828125 10.21875 -13.484375 9.1875 -12.796875 C 8.164062 -12.109375 7.414062 -11.207031 6.9375 -10.09375 C 7.5 -10 8.0625 -9.921875 8.625 -9.859375 C 9.1875 -9.804688 9.742188 -9.78125 10.296875 -9.78125 C 10.796875 -9.78125 11.367188 -9.820312 12.015625 -9.90625 C 12.671875 -10 13.3125 -10.140625 13.9375 -10.328125 C 14.570312 -10.515625 15.09375 -10.75 15.5 -11.03125 C 15.914062 -11.3125 16.125 -11.648438 16.125 -12.046875 C 16.125 -12.222656 16.03125 -12.445312 15.84375 -12.71875 C 15.664062 -13 15.335938 -13.253906 14.859375 -13.484375 C 14.378906 -13.710938 13.679688 -13.828125 12.765625 -13.828125 Z M 12.765625 -13.828125 "/></g></g></g><g fill="#4a90e2" fill-opacity="1"><g transform="translate(115.675753, 260.258986)"><g><path d="M 11.9375 2.703125 C 10.5625 2.703125 9.472656 2.410156 8.671875 1.828125 C 7.878906 1.242188 7.296875 0.441406 6.921875 -0.578125 C 6.554688 -1.609375 6.320312 -2.785156 6.21875 -4.109375 C 6.125 -5.441406 6.078125 -6.835938 6.078125 -8.296875 C 6.078125 -9.804688 6.132812 -11.375 6.25 -13 C 4.71875 -12.800781 3.238281 -12.539062 1.8125 -12.21875 L 0.75 -17.609375 C 2.65625 -18.109375 4.679688 -18.472656 6.828125 -18.703125 C 6.984375 -19.867188 7.15625 -21.097656 7.34375 -22.390625 C 7.53125 -23.679688 7.734375 -25.046875 7.953125 -26.484375 L 13.859375 -25.96875 C 13.585938 -24.78125 13.347656 -23.597656 13.140625 -22.421875 C 12.929688 -21.242188 12.75 -20.109375 12.59375 -19.015625 C 13.875 -19.015625 15.078125 -18.984375 16.203125 -18.921875 C 17.335938 -18.867188 18.390625 -18.769531 19.359375 -18.625 L 18.671875 -13.25 C 17.867188 -13.332031 17.035156 -13.390625 16.171875 -13.421875 C 15.316406 -13.460938 14.457031 -13.484375 13.59375 -13.484375 C 13.0625 -13.484375 12.535156 -13.472656 12.015625 -13.453125 C 11.867188 -11.785156 11.78125 -10.351562 11.75 -9.15625 C 11.71875 -7.96875 11.703125 -7.125 11.703125 -6.625 C 11.703125 -5.363281 11.773438 -4.457031 11.921875 -3.90625 C 12.066406 -3.363281 12.3125 -3.09375 12.65625 -3.09375 C 13.050781 -3.09375 13.488281 -3.222656 13.96875 -3.484375 C 14.445312 -3.742188 14.921875 -4.101562 15.390625 -4.5625 C 15.859375 -5.019531 16.253906 -5.507812 16.578125 -6.03125 L 19.21875 -0.515625 C 16.945312 1.628906 14.519531 2.703125 11.9375 2.703125 Z M 11.9375 2.703125 "/></g></g></g><g fill="#00bfa6" fill-opacity="1"><g transform="translate(140.711158, 260.258986)"><g><path d="M 14.109375 1.609375 C 11.722656 1.609375 9.71875 1.191406 8.09375 0.359375 C 6.46875 -0.472656 5.171875 -1.578125 4.203125 -2.953125 C 3.234375 -4.328125 2.53125 -5.820312 2.09375 -7.4375 C 1.65625 -9.0625 1.4375 -10.675781 1.4375 -12.28125 C 1.4375 -14.175781 1.742188 -16.050781 2.359375 -17.90625 C 2.984375 -19.757812 3.914062 -21.441406 5.15625 -22.953125 C 6.40625 -24.460938 7.960938 -25.675781 9.828125 -26.59375 C 11.691406 -27.507812 13.867188 -27.96875 16.359375 -27.96875 C 18.472656 -27.96875 20.316406 -27.660156 21.890625 -27.046875 C 23.472656 -26.441406 24.828125 -25.710938 25.953125 -24.859375 C 27.085938 -24.003906 28 -23.195312 28.6875 -22.4375 L 24.390625 -17.8125 C 23.753906 -18.5625 23.078125 -19.269531 22.359375 -19.9375 C 21.640625 -20.601562 20.785156 -21.140625 19.796875 -21.546875 C 18.816406 -21.960938 17.601562 -22.171875 16.15625 -22.171875 C 14.601562 -22.171875 13.265625 -21.890625 12.140625 -21.328125 C 11.023438 -20.765625 10.113281 -20.015625 9.40625 -19.078125 C 8.695312 -18.140625 8.175781 -17.085938 7.84375 -15.921875 C 7.507812 -14.753906 7.34375 -13.550781 7.34375 -12.3125 C 7.34375 -10.851562 7.585938 -9.503906 8.078125 -8.265625 C 8.566406 -7.035156 9.304688 -6.039062 10.296875 -5.28125 C 11.296875 -4.53125 12.539062 -4.15625 14.03125 -4.15625 C 15.863281 -4.15625 17.375 -4.578125 18.5625 -5.421875 C 19.75 -6.265625 20.570312 -7.476562 21.03125 -9.0625 C 20.050781 -8.988281 19.109375 -8.898438 18.203125 -8.796875 C 17.296875 -8.691406 16.488281 -8.582031 15.78125 -8.46875 L 15.203125 -14.03125 C 16.546875 -14.332031 18.101562 -14.554688 19.875 -14.703125 C 21.65625 -14.847656 23.359375 -14.921875 24.984375 -14.921875 C 27.222656 -14.921875 28.898438 -14.785156 30.015625 -14.515625 L 29.890625 -8.890625 C 29.410156 -9.023438 28.644531 -9.128906 27.59375 -9.203125 C 27.59375 -8.691406 27.597656 -8.160156 27.609375 -7.609375 C 27.617188 -7.066406 27.625 -6.507812 27.625 -5.9375 C 27.625 -4.351562 27.597656 -2.796875 27.546875 -1.265625 C 27.503906 0.265625 27.460938 1.488281 27.421875 2.40625 L 21.546875 2.265625 C 21.566406 1.960938 21.601562 1.503906 21.65625 0.890625 C 21.71875 0.273438 21.785156 -0.421875 21.859375 -1.203125 C 21.078125 -0.378906 20.0625 0.289062 18.8125 0.8125 C 17.570312 1.34375 16.003906 1.609375 14.109375 1.609375 Z M 14.109375 1.609375 "/></g></g></g><g fill="#00bfa6" fill-opacity="1"><g transform="translate(172.244103, 260.258986)"><g><path d="M 9.265625 2.8125 C 7.796875 2.8125 6.585938 2.550781 5.640625 2.03125 C 4.691406 1.519531 3.9375 0.820312 3.375 -0.0625 C 2.820312 -0.957031 2.410156 -1.957031 2.140625 -3.0625 C 1.878906 -4.175781 1.707031 -5.332031 1.625 -6.53125 C 1.550781 -7.738281 1.515625 -8.898438 1.515625 -10.015625 C 1.515625 -11.296875 1.550781 -12.597656 1.625 -13.921875 C 1.707031 -15.253906 1.796875 -16.707031 1.890625 -18.28125 L 8.171875 -18.671875 C 8.097656 -18.191406 7.992188 -17.46875 7.859375 -16.5 C 7.722656 -15.539062 7.597656 -14.441406 7.484375 -13.203125 C 7.367188 -11.972656 7.3125 -10.679688 7.3125 -9.328125 C 7.3125 -7.109375 7.503906 -5.46875 7.890625 -4.40625 C 8.273438 -3.34375 8.859375 -2.8125 9.640625 -2.8125 C 11.191406 -2.8125 12.332031 -3.941406 13.0625 -6.203125 C 13.800781 -8.472656 14.171875 -12.054688 14.171875 -16.953125 L 14.171875 -18.53125 L 17.09375 -18.59375 L 20.625 -18.671875 C 20.300781 -16.515625 20.054688 -14.53125 19.890625 -12.71875 C 19.734375 -10.914062 19.632812 -9.398438 19.59375 -8.171875 C 19.550781 -6.953125 19.53125 -6.140625 19.53125 -5.734375 C 19.53125 -4.679688 19.617188 -3.929688 19.796875 -3.484375 C 19.984375 -3.035156 20.304688 -2.8125 20.765625 -2.8125 C 20.992188 -2.8125 21.242188 -2.859375 21.515625 -2.953125 C 21.785156 -3.046875 22.101562 -3.207031 22.46875 -3.4375 L 22.234375 2.46875 C 21.367188 2.601562 20.613281 2.671875 19.96875 2.671875 C 18.875 2.671875 17.976562 2.460938 17.28125 2.046875 C 16.582031 1.640625 16.023438 1.09375 15.609375 0.40625 C 14.898438 1.164062 14.023438 1.753906 12.984375 2.171875 C 11.941406 2.597656 10.703125 2.8125 9.265625 2.8125 Z M 9.265625 2.8125 "/></g></g></g><g fill="#00bfa6" fill-opacity="1"><g transform="translate(195.88523, 260.258986)"><g><path d="M 10.265625 2.703125 C 8.546875 2.703125 6.988281 2.257812 5.59375 1.375 C 4.195312 0.5 3.09375 -0.679688 2.28125 -2.171875 C 1.46875 -3.671875 1.0625 -5.347656 1.0625 -7.203125 C 1.0625 -8.941406 1.378906 -10.515625 2.015625 -11.921875 C 2.660156 -13.328125 3.535156 -14.53125 4.640625 -15.53125 C 5.753906 -16.539062 7.019531 -17.316406 8.4375 -17.859375 C 9.851562 -18.398438 11.34375 -18.671875 12.90625 -18.671875 C 14.207031 -18.671875 15.488281 -18.484375 16.75 -18.109375 C 16.832031 -18.597656 16.910156 -19.082031 16.984375 -19.5625 L 22.859375 -18.5625 C 22.691406 -18.125 22.523438 -17.46875 22.359375 -16.59375 C 22.203125 -15.726562 22.070312 -14.757812 21.96875 -13.6875 C 21.875 -12.613281 21.789062 -11.539062 21.71875 -10.46875 C 21.644531 -9.394531 21.609375 -8.421875 21.609375 -7.546875 C 21.609375 -6.835938 21.660156 -6.144531 21.765625 -5.46875 C 21.867188 -4.789062 22.09375 -4.238281 22.4375 -3.8125 C 22.78125 -3.394531 23.304688 -3.1875 24.015625 -3.1875 L 24.5 -3.1875 L 23.640625 2.78125 C 22.128906 2.78125 20.878906 2.519531 19.890625 2 C 18.910156 1.488281 18.125 0.800781 17.53125 -0.0625 C 16.550781 1.03125 15.429688 1.765625 14.171875 2.140625 C 12.910156 2.515625 11.609375 2.703125 10.265625 2.703125 Z M 6.6875 -6.515625 C 6.800781 -5.421875 7.253906 -4.546875 8.046875 -3.890625 C 8.835938 -3.242188 9.835938 -2.921875 11.046875 -2.921875 C 12.210938 -2.921875 13.179688 -3.234375 13.953125 -3.859375 C 14.734375 -4.484375 15.378906 -5.347656 15.890625 -6.453125 C 15.867188 -6.816406 15.859375 -7.191406 15.859375 -7.578125 C 15.859375 -8.378906 15.878906 -9.203125 15.921875 -10.046875 C 15.960938 -10.898438 16.019531 -11.738281 16.09375 -12.5625 C 15.132812 -12.925781 14.128906 -13.109375 13.078125 -13.109375 C 11.835938 -13.109375 10.726562 -12.859375 9.75 -12.359375 C 8.78125 -11.867188 8.019531 -11.191406 7.46875 -10.328125 C 6.925781 -9.460938 6.65625 -8.457031 6.65625 -7.3125 C 6.65625 -7.175781 6.65625 -7.035156 6.65625 -6.890625 C 6.65625 -6.753906 6.664062 -6.628906 6.6875 -6.515625 Z M 6.6875 -6.515625 "/></g></g></g><g fill="#00bfa6" fill-opacity="1"><g transform="translate(220.898846, 260.258986)"><g><path d="M 1.515625 2.671875 C 1.597656 0.773438 1.660156 -1.117188 1.703125 -3.015625 C 1.753906 -4.921875 1.78125 -6.796875 1.78125 -8.640625 C 1.757812 -10.335938 1.726562 -12.015625 1.6875 -13.671875 C 1.65625 -15.328125 1.597656 -16.9375 1.515625 -18.5 L 7.28125 -18.671875 C 7.300781 -17.816406 7.332031 -16.945312 7.375 -16.0625 C 8.101562 -16.976562 8.953125 -17.710938 9.921875 -18.265625 C 10.898438 -18.828125 12.019531 -19.109375 13.28125 -19.109375 C 13.757812 -19.109375 14.375 -19.039062 15.125 -18.90625 C 15.882812 -18.769531 16.65625 -18.503906 17.4375 -18.109375 L 16.78125 -12.3125 C 16.207031 -12.65625 15.59375 -12.898438 14.9375 -13.046875 C 14.289062 -13.203125 13.75 -13.28125 13.3125 -13.28125 C 11.851562 -13.28125 10.613281 -12.617188 9.59375 -11.296875 C 8.570312 -9.984375 7.878906 -8.160156 7.515625 -5.828125 C 7.515625 -4.234375 7.492188 -2.707031 7.453125 -1.25 C 7.421875 0.195312 7.363281 1.503906 7.28125 2.671875 Z M 1.515625 2.671875 "/></g></g></g><g fill="#00bfa6" fill-opacity="1"><g transform="translate(238.089277, 260.258986)"><g><path d="M 10.296875 2.703125 C 9.109375 2.703125 7.945312 2.492188 6.8125 2.078125 C 5.675781 1.671875 4.65625 1.039062 3.75 0.1875 C 2.851562 -0.664062 2.140625 -1.738281 1.609375 -3.03125 C 1.085938 -4.320312 0.828125 -5.835938 0.828125 -7.578125 C 0.828125 -9.546875 1.128906 -11.242188 1.734375 -12.671875 C 2.335938 -14.109375 3.140625 -15.289062 4.140625 -16.21875 C 5.148438 -17.144531 6.273438 -17.832031 7.515625 -18.28125 C 8.753906 -18.738281 9.988281 -18.96875 11.21875 -18.96875 C 11.945312 -18.96875 12.644531 -18.914062 13.3125 -18.8125 C 13.976562 -18.71875 14.597656 -18.578125 15.171875 -18.390625 C 15.234375 -20.054688 15.316406 -21.734375 15.421875 -23.421875 C 15.523438 -25.117188 15.644531 -26.789062 15.78125 -28.4375 L 21.546875 -28.0625 C 21.367188 -26.164062 21.207031 -24.125 21.0625 -21.9375 C 20.925781 -19.757812 20.828125 -17.535156 20.765625 -15.265625 C 20.710938 -13.003906 20.6875 -10.796875 20.6875 -8.640625 C 20.6875 -6.628906 20.710938 -4.710938 20.765625 -2.890625 C 20.828125 -1.078125 20.90625 0.570312 21 2.0625 L 15.0625 2.5 C 15.039062 2.070312 15.03125 1.648438 15.03125 1.234375 C 14.363281 1.671875 13.632812 2.023438 12.84375 2.296875 C 12.0625 2.566406 11.210938 2.703125 10.296875 2.703125 Z M 6.34375 -7.890625 C 6.34375 -6.703125 6.570312 -5.769531 7.03125 -5.09375 C 7.488281 -4.414062 8.046875 -3.941406 8.703125 -3.671875 C 9.367188 -3.398438 10.015625 -3.265625 10.640625 -3.265625 C 11.367188 -3.265625 12.097656 -3.421875 12.828125 -3.734375 C 13.566406 -4.054688 14.253906 -4.617188 14.890625 -5.421875 C 14.890625 -5.691406 14.890625 -5.953125 14.890625 -6.203125 C 14.890625 -8.054688 14.910156 -9.957031 14.953125 -11.90625 C 13.878906 -12.84375 12.710938 -13.3125 11.453125 -13.3125 C 10.929688 -13.3125 10.375 -13.226562 9.78125 -13.0625 C 9.1875 -12.90625 8.628906 -12.625 8.109375 -12.21875 C 7.597656 -11.820312 7.175781 -11.273438 6.84375 -10.578125 C 6.507812 -9.878906 6.34375 -8.984375 6.34375 -7.890625 Z M 6.34375 -7.890625 "/></g></g></g><g fill="#00bfa6" fill-opacity="1"><g transform="translate(260.735349, 260.258986)"><g><path d="M 1.546875 -22.171875 C 1.546875 -22.367188 1.539062 -22.578125 1.53125 -22.796875 C 1.519531 -23.015625 1.515625 -23.257812 1.515625 -23.53125 C 1.515625 -24.269531 1.535156 -25.050781 1.578125 -25.875 C 1.617188 -26.695312 1.664062 -27.394531 1.71875 -27.96875 L 7.828125 -27.859375 C 7.753906 -27.078125 7.675781 -26.195312 7.59375 -25.21875 C 7.519531 -24.238281 7.472656 -23.222656 7.453125 -22.171875 Z M 1.40625 2.40625 C 1.332031 0.988281 1.285156 -0.523438 1.265625 -2.140625 C 1.242188 -3.753906 1.234375 -5.375 1.234375 -7 C 1.234375 -9.125 1.253906 -11.191406 1.296875 -13.203125 C 1.347656 -15.222656 1.40625 -17.054688 1.46875 -18.703125 L 7.375 -18.734375 C 7.28125 -17.679688 7.222656 -16.382812 7.203125 -14.84375 C 7.179688 -13.300781 7.171875 -11.679688 7.171875 -9.984375 C 7.171875 -8.316406 7.179688 -6.671875 7.203125 -5.046875 C 7.222656 -3.421875 7.25 -1.945312 7.28125 -0.625 C 7.320312 0.6875 7.351562 1.695312 7.375 2.40625 Z M 1.40625 2.40625 "/></g></g></g><g fill="#00bfa6" fill-opacity="1"><g transform="translate(269.793782, 260.258986)"><g><path d="M 10.265625 2.703125 C 8.546875 2.703125 6.988281 2.257812 5.59375 1.375 C 4.195312 0.5 3.09375 -0.679688 2.28125 -2.171875 C 1.46875 -3.671875 1.0625 -5.347656 1.0625 -7.203125 C 1.0625 -8.941406 1.378906 -10.515625 2.015625 -11.921875 C 2.660156 -13.328125 3.535156 -14.53125 4.640625 -15.53125 C 5.753906 -16.539062 7.019531 -17.316406 8.4375 -17.859375 C 9.851562 -18.398438 11.34375 -18.671875 12.90625 -18.671875 C 14.207031 -18.671875 15.488281 -18.484375 16.75 -18.109375 C 16.832031 -18.597656 16.910156 -19.082031 16.984375 -19.5625 L 22.859375 -18.5625 C 22.691406 -18.125 22.523438 -17.46875 22.359375 -16.59375 C 22.203125 -15.726562 22.070312 -14.757812 21.96875 -13.6875 C 21.875 -12.613281 21.789062 -11.539062 21.71875 -10.46875 C 21.644531 -9.394531 21.609375 -8.421875 21.609375 -7.546875 C 21.609375 -6.835938 21.660156 -6.144531 21.765625 -5.46875 C 21.867188 -4.789062 22.09375 -4.238281 22.4375 -3.8125 C 22.78125 -3.394531 23.304688 -3.1875 24.015625 -3.1875 L 24.5 -3.1875 L 23.640625 2.78125 C 22.128906 2.78125 20.878906 2.519531 19.890625 2 C 18.910156 1.488281 18.125 0.800781 17.53125 -0.0625 C 16.550781 1.03125 15.429688 1.765625 14.171875 2.140625 C 12.910156 2.515625 11.609375 2.703125 10.265625 2.703125 Z M 6.6875 -6.515625 C 6.800781 -5.421875 7.253906 -4.546875 8.046875 -3.890625 C 8.835938 -3.242188 9.835938 -2.921875 11.046875 -2.921875 C 12.210938 -2.921875 13.179688 -3.234375 13.953125 -3.859375 C 14.734375 -4.484375 15.378906 -5.347656 15.890625 -6.453125 C 15.867188 -6.816406 15.859375 -7.191406 15.859375 -7.578125 C 15.859375 -8.378906 15.878906 -9.203125 15.921875 -10.046875 C 15.960938 -10.898438 16.019531 -11.738281 16.09375 -12.5625 C 15.132812 -12.925781 14.128906 -13.109375 13.078125 -13.109375 C 11.835938 -13.109375 10.726562 -12.859375 9.75 -12.359375 C 8.78125 -11.867188 8.019531 -11.191406 7.46875 -10.328125 C 6.925781 -9.460938 6.65625 -8.457031 6.65625 -7.3125 C 6.65625 -7.175781 6.65625 -7.035156 6.65625 -6.890625 C 6.65625 -6.753906 6.664062 -6.628906 6.6875 -6.515625 Z M 6.6875 -6.515625 "/></g></g></g><g fill="#00bfa6" fill-opacity="1"><g transform="translate(294.807398, 260.258986)"><g><path d="M 1.921875 2.46875 C 1.847656 0.457031 1.796875 -1.40625 1.765625 -3.125 C 1.734375 -4.84375 1.71875 -6.535156 1.71875 -8.203125 C 1.71875 -9.867188 1.734375 -11.539062 1.765625 -13.21875 C 1.796875 -14.90625 1.859375 -16.707031 1.953125 -18.625 L 7.75 -18.625 C 7.664062 -17.601562 7.585938 -16.566406 7.515625 -15.515625 C 8.296875 -16.492188 9.222656 -17.304688 10.296875 -17.953125 C 11.367188 -18.609375 12.640625 -18.9375 14.109375 -18.9375 C 15.546875 -18.9375 16.726562 -18.695312 17.65625 -18.21875 C 18.582031 -17.738281 19.3125 -17.070312 19.84375 -16.21875 C 20.382812 -15.375 20.773438 -14.410156 21.015625 -13.328125 C 21.253906 -12.242188 21.40625 -11.078125 21.46875 -9.828125 C 21.539062 -8.578125 21.578125 -7.328125 21.578125 -6.078125 C 21.578125 -4.703125 21.550781 -3.382812 21.5 -2.125 C 21.457031 -0.863281 21.414062 0.1875 21.375 1.03125 C 21.332031 1.875 21.300781 2.378906 21.28125 2.546875 L 15.515625 2.546875 C 15.554688 1.597656 15.597656 0.59375 15.640625 -0.46875 C 15.691406 -1.53125 15.738281 -2.582031 15.78125 -3.625 C 15.832031 -4.664062 15.859375 -5.609375 15.859375 -6.453125 C 15.859375 -11.328125 15.066406 -13.765625 13.484375 -13.765625 C 12.179688 -13.765625 11 -13.195312 9.9375 -12.0625 C 8.875 -10.925781 7.988281 -9.5 7.28125 -7.78125 C 7.28125 -7.5625 7.28125 -7.335938 7.28125 -7.109375 C 7.28125 -6.003906 7.285156 -4.863281 7.296875 -3.6875 C 7.304688 -2.507812 7.328125 -1.390625 7.359375 -0.328125 C 7.390625 0.734375 7.421875 1.65625 7.453125 2.4375 Z M 1.921875 2.46875 "/></g></g></g><g fill="#000000" fill-opacity="1"><g transform="translate(102.903983, 286.376197)"><g><path d="M 4.65625 0 L 2.921875 -3 L 1.765625 -3 L 1.765625 0 L 0.8125 0 L 0.8125 -7.3125 L 3.171875 -7.3125 C 3.722656 -7.3125 4.1875 -7.21875 4.5625 -7.03125 C 4.945312 -6.84375 5.234375 -6.585938 5.421875 -6.265625 C 5.617188 -5.941406 5.71875 -5.578125 5.71875 -5.171875 C 5.71875 -4.660156 5.570312 -4.210938 5.28125 -3.828125 C 4.988281 -3.441406 4.550781 -3.1875 3.96875 -3.0625 L 5.8125 0 Z M 1.765625 -3.765625 L 3.171875 -3.765625 C 3.691406 -3.765625 4.078125 -3.890625 4.328125 -4.140625 C 4.585938 -4.398438 4.71875 -4.742188 4.71875 -5.171875 C 4.71875 -5.597656 4.585938 -5.929688 4.328125 -6.171875 C 4.078125 -6.410156 3.691406 -6.53125 3.171875 -6.53125 L 1.765625 -6.53125 Z M 1.765625 -3.765625 "/></g></g></g><g fill="#000000" fill-opacity="1"><g transform="translate(110.123892, 286.376197)"><g><path d="M 1.765625 -6.546875 L 1.765625 -4.09375 L 4.4375 -4.09375 L 4.4375 -3.3125 L 1.765625 -3.3125 L 1.765625 -0.78125 L 4.75 -0.78125 L 4.75 0 L 0.8125 0 L 0.8125 -7.328125 L 4.75 -7.328125 L 4.75 -6.546875 Z M 1.765625 -6.546875 "/></g></g></g><g fill="#000000" fill-opacity="1"><g transform="translate(116.347029, 286.376197)"><g><path d="M 0.453125 -3.671875 C 0.453125 -4.378906 0.613281 -5.019531 0.9375 -5.59375 C 1.257812 -6.164062 1.695312 -6.609375 2.25 -6.921875 C 2.8125 -7.242188 3.429688 -7.40625 4.109375 -7.40625 C 4.898438 -7.40625 5.59375 -7.210938 6.1875 -6.828125 C 6.789062 -6.453125 7.226562 -5.910156 7.5 -5.203125 L 6.359375 -5.203125 C 6.148438 -5.640625 5.851562 -5.976562 5.46875 -6.21875 C 5.09375 -6.457031 4.640625 -6.578125 4.109375 -6.578125 C 3.597656 -6.578125 3.140625 -6.457031 2.734375 -6.21875 C 2.328125 -5.976562 2.003906 -5.640625 1.765625 -5.203125 C 1.535156 -4.765625 1.421875 -4.253906 1.421875 -3.671875 C 1.421875 -3.085938 1.535156 -2.578125 1.765625 -2.140625 C 2.003906 -1.703125 2.328125 -1.363281 2.734375 -1.125 C 3.140625 -0.882812 3.597656 -0.765625 4.109375 -0.765625 C 4.640625 -0.765625 5.09375 -0.878906 5.46875 -1.109375 C 5.851562 -1.347656 6.148438 -1.6875 6.359375 -2.125 L 7.5 -2.125 C 7.226562 -1.425781 6.789062 -0.882812 6.1875 -0.5 C 5.59375 -0.125 4.898438 0.0625 4.109375 0.0625 C 3.429688 0.0625 2.8125 -0.09375 2.25 -0.40625 C 1.695312 -0.726562 1.257812 -1.171875 0.9375 -1.734375 C 0.613281 -2.304688 0.453125 -2.953125 0.453125 -3.671875 Z M 0.453125 -3.671875 "/></g></g></g><g fill="#000000" fill-opacity="1"><g transform="translate(125.287697, 286.376197)"><g><path d="M 4.125 0.078125 C 3.445312 0.078125 2.828125 -0.078125 2.265625 -0.390625 C 1.703125 -0.710938 1.257812 -1.160156 0.9375 -1.734375 C 0.613281 -2.304688 0.453125 -2.953125 0.453125 -3.671875 C 0.453125 -4.378906 0.613281 -5.019531 0.9375 -5.59375 C 1.257812 -6.164062 1.703125 -6.609375 2.265625 -6.921875 C 2.828125 -7.242188 3.445312 -7.40625 4.125 -7.40625 C 4.8125 -7.40625 5.429688 -7.242188 5.984375 -6.921875 C 6.546875 -6.609375 6.988281 -6.164062 7.3125 -5.59375 C 7.632812 -5.03125 7.796875 -4.390625 7.796875 -3.671875 C 7.796875 -2.941406 7.632812 -2.289062 7.3125 -1.71875 C 6.988281 -1.15625 6.546875 -0.710938 5.984375 -0.390625 C 5.429688 -0.078125 4.8125 0.078125 4.125 0.078125 Z M 4.125 -0.75 C 4.632812 -0.75 5.09375 -0.867188 5.5 -1.109375 C 5.914062 -1.347656 6.238281 -1.6875 6.46875 -2.125 C 6.707031 -2.570312 6.828125 -3.085938 6.828125 -3.671875 C 6.828125 -4.253906 6.707031 -4.765625 6.46875 -5.203125 C 6.238281 -5.640625 5.921875 -5.976562 5.515625 -6.21875 C 5.109375 -6.457031 4.644531 -6.578125 4.125 -6.578125 C 3.601562 -6.578125 3.140625 -6.457031 2.734375 -6.21875 C 2.328125 -5.976562 2.003906 -5.640625 1.765625 -5.203125 C 1.535156 -4.765625 1.421875 -4.253906 1.421875 -3.671875 C 1.421875 -3.085938 1.535156 -2.570312 1.765625 -2.125 C 2.003906 -1.6875 2.328125 -1.347656 2.734375 -1.109375 C 3.148438 -0.867188 3.613281 -0.75 4.125 -0.75 Z M 4.125 -0.75 "/></g></g></g><g fill="#000000" fill-opacity="1"><g transform="translate(134.375248, 286.376197)"><g><path d="M 4.65625 0 L 2.921875 -3 L 1.765625 -3 L 1.765625 0 L 0.8125 0 L 0.8125 -7.3125 L 3.171875 -7.3125 C 3.722656 -7.3125 4.1875 -7.21875 4.5625 -7.03125 C 4.945312 -6.84375 5.234375 -6.585938 5.421875 -6.265625 C 5.617188 -5.941406 5.71875 -5.578125 5.71875 -5.171875 C 5.71875 -4.660156 5.570312 -4.210938 5.28125 -3.828125 C 4.988281 -3.441406 4.550781 -3.1875 3.96875 -3.0625 L 5.8125 0 Z M 1.765625 -3.765625 L 3.171875 -3.765625 C 3.691406 -3.765625 4.078125 -3.890625 4.328125 -4.140625 C 4.585938 -4.398438 4.71875 -4.742188 4.71875 -5.171875 C 4.71875 -5.597656 4.585938 -5.929688 4.328125 -6.171875 C 4.078125 -6.410156 3.691406 -6.53125 3.171875 -6.53125 L 1.765625 -6.53125 Z M 1.765625 -3.765625 "/></g></g></g><g fill="#000000" fill-opacity="1"><g transform="translate(141.595157, 286.376197)"><g><path d="M 3.09375 -7.3125 C 3.882812 -7.3125 4.570312 -7.160156 5.15625 -6.859375 C 5.738281 -6.566406 6.1875 -6.144531 6.5 -5.59375 C 6.8125 -5.039062 6.96875 -4.390625 6.96875 -3.640625 C 6.96875 -2.890625 6.8125 -2.238281 6.5 -1.6875 C 6.1875 -1.144531 5.738281 -0.726562 5.15625 -0.4375 C 4.570312 -0.144531 3.882812 0 3.09375 0 L 0.8125 0 L 0.8125 -7.3125 Z M 3.09375 -0.78125 C 4.03125 -0.78125 4.75 -1.03125 5.25 -1.53125 C 5.75 -2.03125 6 -2.734375 6 -3.640625 C 6 -4.554688 5.75 -5.269531 5.25 -5.78125 C 4.75 -6.289062 4.03125 -6.546875 3.09375 -6.546875 L 1.765625 -6.546875 L 1.765625 -0.78125 Z M 3.09375 -0.78125 "/></g></g></g><g fill="#000000" fill-opacity="1"><g transform="translate(149.853815, 286.376197)"><g/></g></g><g fill="#000000" fill-opacity="1"><g transform="translate(153.495821, 286.376197)"><g><path d="M 6.453125 -7.3125 L 6.453125 0 L 5.484375 0 L 5.484375 -3.3125 L 1.765625 -3.3125 L 1.765625 0 L 0.8125 0 L 0.8125 -7.3125 L 1.765625 -7.3125 L 1.765625 -4.109375 L 5.484375 -4.109375 L 5.484375 -7.3125 Z M 6.453125 -7.3125 "/></g></g></g><g fill="#000000" fill-opacity="1"><g transform="translate(161.597097, 286.376197)"><g><path d="M 1.765625 -6.546875 L 1.765625 -4.09375 L 4.4375 -4.09375 L 4.4375 -3.3125 L 1.765625 -3.3125 L 1.765625 -0.78125 L 4.75 -0.78125 L 4.75 0 L 0.8125 0 L 0.8125 -7.328125 L 4.75 -7.328125 L 4.75 -6.546875 Z M 1.765625 -6.546875 "/></g></g></g><g fill="#000000" fill-opacity="1"><g transform="translate(167.820235, 286.376197)"><g><path d="M 5.140625 -1.625 L 1.9375 -1.625 L 1.359375 0 L 0.34375 0 L 3 -7.28125 L 4.09375 -7.28125 L 6.734375 0 L 5.71875 0 Z M 4.859375 -2.40625 L 3.53125 -6.09375 L 2.21875 -2.40625 Z M 4.859375 -2.40625 "/></g></g></g><g fill="#000000" fill-opacity="1"><g transform="translate(175.732638, 286.376197)"><g><path d="M 1.765625 -0.78125 L 4.328125 -0.78125 L 4.328125 0 L 0.8125 0 L 0.8125 -7.3125 L 1.765625 -7.3125 Z M 1.765625 -0.78125 "/></g></g></g><g fill="#000000" fill-opacity="1"><g transform="translate(181.105887, 286.376197)"><g><path d="M 5.3125 -7.3125 L 5.3125 -6.546875 L 3.3125 -6.546875 L 3.3125 0 L 2.359375 0 L 2.359375 -6.546875 L 0.359375 -6.546875 L 0.359375 -7.3125 Z M 5.3125 -7.3125 "/></g></g></g><g fill="#000000" fill-opacity="1"><g transform="translate(187.622805, 286.376197)"><g><path d="M 6.453125 -7.3125 L 6.453125 0 L 5.484375 0 L 5.484375 -3.3125 L 1.765625 -3.3125 L 1.765625 0 L 0.8125 0 L 0.8125 -7.3125 L 1.765625 -7.3125 L 1.765625 -4.109375 L 5.484375 -4.109375 L 5.484375 -7.3125 Z M 6.453125 -7.3125 "/></g></g></g><g fill="#000000" fill-opacity="1"><g transform="translate(195.724081, 286.376197)"><g/></g></g><g fill="#000000" fill-opacity="1"><g transform="translate(199.366088, 286.376197)"><g><path d="M 6.421875 0 L 5.46875 -0.96875 C 5.113281 -0.59375 4.734375 -0.316406 4.328125 -0.140625 C 3.921875 0.0351562 3.460938 0.125 2.953125 0.125 C 2.441406 0.125 1.992188 0.0351562 1.609375 -0.140625 C 1.222656 -0.328125 0.921875 -0.585938 0.703125 -0.921875 C 0.492188 -1.253906 0.390625 -1.644531 0.390625 -2.09375 C 0.390625 -2.601562 0.535156 -3.050781 0.828125 -3.4375 C 1.117188 -3.832031 1.546875 -4.144531 2.109375 -4.375 C 1.890625 -4.632812 1.726562 -4.875 1.625 -5.09375 C 1.53125 -5.320312 1.484375 -5.570312 1.484375 -5.84375 C 1.484375 -6.144531 1.5625 -6.421875 1.71875 -6.671875 C 1.875 -6.921875 2.097656 -7.113281 2.390625 -7.25 C 2.679688 -7.394531 3.019531 -7.46875 3.40625 -7.46875 C 3.789062 -7.46875 4.117188 -7.394531 4.390625 -7.25 C 4.671875 -7.101562 4.878906 -6.894531 5.015625 -6.625 C 5.160156 -6.363281 5.226562 -6.070312 5.21875 -5.75 L 4.265625 -5.75 C 4.273438 -6.039062 4.191406 -6.265625 4.015625 -6.421875 C 3.847656 -6.585938 3.632812 -6.671875 3.375 -6.671875 C 3.09375 -6.671875 2.863281 -6.59375 2.6875 -6.4375 C 2.519531 -6.28125 2.4375 -6.082031 2.4375 -5.84375 C 2.4375 -5.625 2.492188 -5.414062 2.609375 -5.21875 C 2.722656 -5.03125 2.914062 -4.789062 3.1875 -4.5 L 5.375 -2.3125 L 5.5625 -2.609375 L 6.28125 -3.796875 L 7.3125 -3.796875 L 6.453125 -2.3125 C 6.328125 -2.101562 6.1875 -1.882812 6.03125 -1.65625 L 7.671875 0 Z M 2.953125 -0.6875 C 3.328125 -0.6875 3.664062 -0.757812 3.96875 -0.90625 C 4.28125 -1.0625 4.570312 -1.289062 4.84375 -1.59375 L 2.6875 -3.765625 C 1.789062 -3.421875 1.34375 -2.875 1.34375 -2.125 C 1.34375 -1.71875 1.488281 -1.375 1.78125 -1.09375 C 2.082031 -0.820312 2.472656 -0.6875 2.953125 -0.6875 Z M 2.953125 -0.6875 "/></g></g></g><g fill="#000000" fill-opacity="1"><g transform="translate(207.960502, 286.376197)"><g/></g></g><g fill="#000000" fill-opacity="1"><g transform="translate(211.602508, 286.376197)"><g><path d="M 5.140625 -1.625 L 1.9375 -1.625 L 1.359375 0 L 0.34375 0 L 3 -7.28125 L 4.09375 -7.28125 L 6.734375 0 L 5.71875 0 Z M 4.859375 -2.40625 L 3.53125 -6.09375 L 2.21875 -2.40625 Z M 4.859375 -2.40625 "/></g></g></g><g fill="#000000" fill-opacity="1"><g transform="translate(219.514906, 286.376197)"><g><path d="M 0.453125 -3.671875 C 0.453125 -4.378906 0.613281 -5.019531 0.9375 -5.59375 C 1.257812 -6.164062 1.695312 -6.609375 2.25 -6.921875 C 2.8125 -7.242188 3.429688 -7.40625 4.109375 -7.40625 C 4.898438 -7.40625 5.59375 -7.210938 6.1875 -6.828125 C 6.789062 -6.453125 7.226562 -5.910156 7.5 -5.203125 L 6.359375 -5.203125 C 6.148438 -5.640625 5.851562 -5.976562 5.46875 -6.21875 C 5.09375 -6.457031 4.640625 -6.578125 4.109375 -6.578125 C 3.597656 -6.578125 3.140625 -6.457031 2.734375 -6.21875 C 2.328125 -5.976562 2.003906 -5.640625 1.765625 -5.203125 C 1.535156 -4.765625 1.421875 -4.253906 1.421875 -3.671875 C 1.421875 -3.085938 1.535156 -2.578125 1.765625 -2.140625 C 2.003906 -1.703125 2.328125 -1.363281 2.734375 -1.125 C 3.140625 -0.882812 3.597656 -0.765625 4.109375 -0.765625 C 4.640625 -0.765625 5.09375 -0.878906 5.46875 -1.109375 C 5.851562 -1.347656 6.148438 -1.6875 6.359375 -2.125 L 7.5 -2.125 C 7.226562 -1.425781 6.789062 -0.882812 6.1875 -0.5 C 5.59375 -0.125 4.898438 0.0625 4.109375 0.0625 C 3.429688 0.0625 2.8125 -0.09375 2.25 -0.40625 C 1.695312 -0.726562 1.257812 -1.171875 0.9375 -1.734375 C 0.613281 -2.304688 0.453125 -2.953125 0.453125 -3.671875 Z M 0.453125 -3.671875 "/></g></g></g><g fill="#000000" fill-opacity="1"><g transform="translate(228.455567, 286.376197)"><g><path d="M 5.3125 -7.3125 L 5.3125 -6.546875 L 3.3125 -6.546875 L 3.3125 0 L 2.359375 0 L 2.359375 -6.546875 L 0.359375 -6.546875 L 0.359375 -7.3125 Z M 5.3125 -7.3125 "/></g></g></g><g fill="#000000" fill-opacity="1"><g transform="translate(234.972491, 286.376197)"><g><path d="M 1.765625 -7.3125 L 1.765625 0 L 0.8125 0 L 0.8125 -7.3125 Z M 1.765625 -7.3125 "/></g></g></g><g fill="#000000" fill-opacity="1"><g transform="translate(238.394165, 286.376197)"><g><path d="M 6.859375 -7.3125 L 4.09375 0 L 3 0 L 0.234375 -7.3125 L 1.25 -7.3125 L 3.546875 -1.015625 L 5.84375 -7.3125 Z M 6.859375 -7.3125 "/></g></g></g><g fill="#000000" fill-opacity="1"><g transform="translate(246.327569, 286.376197)"><g><path d="M 1.765625 -7.3125 L 1.765625 0 L 0.8125 0 L 0.8125 -7.3125 Z M 1.765625 -7.3125 "/></g></g></g><g fill="#000000" fill-opacity="1"><g transform="translate(249.749243, 286.376197)"><g><path d="M 5.3125 -7.3125 L 5.3125 -6.546875 L 3.3125 -6.546875 L 3.3125 0 L 2.359375 0 L 2.359375 -6.546875 L 0.359375 -6.546875 L 0.359375 -7.3125 Z M 5.3125 -7.3125 "/></g></g></g><g fill="#000000" fill-opacity="1"><g transform="translate(256.266167, 286.376197)"><g><path d="M 1.765625 -7.3125 L 1.765625 0 L 0.8125 0 L 0.8125 -7.3125 Z M 1.765625 -7.3125 "/></g></g></g><g fill="#000000" fill-opacity="1"><g transform="translate(259.687841, 286.376197)"><g><path d="M 1.765625 -6.546875 L 1.765625 -4.09375 L 4.4375 -4.09375 L 4.4375 -3.3125 L 1.765625 -3.3125 L 1.765625 -0.78125 L 4.75 -0.78125 L 4.75 0 L 0.8125 0 L 0.8125 -7.328125 L 4.75 -7.328125 L 4.75 -6.546875 Z M 1.765625 -6.546875 "/></g></g></g><g fill="#000000" fill-opacity="1"><g transform="translate(265.910985, 286.376197)"><g><path d="M 3.125 0.078125 C 2.644531 0.078125 2.210938 -0.00390625 1.828125 -0.171875 C 1.453125 -0.347656 1.15625 -0.585938 0.9375 -0.890625 C 0.71875 -1.203125 0.601562 -1.554688 0.59375 -1.953125 L 1.609375 -1.953125 C 1.648438 -1.609375 1.796875 -1.316406 2.046875 -1.078125 C 2.296875 -0.847656 2.65625 -0.734375 3.125 -0.734375 C 3.582031 -0.734375 3.941406 -0.847656 4.203125 -1.078125 C 4.460938 -1.304688 4.59375 -1.597656 4.59375 -1.953125 C 4.59375 -2.234375 4.515625 -2.457031 4.359375 -2.625 C 4.210938 -2.800781 4.019531 -2.9375 3.78125 -3.03125 C 3.550781 -3.125 3.242188 -3.222656 2.859375 -3.328125 C 2.367188 -3.453125 1.976562 -3.578125 1.6875 -3.703125 C 1.40625 -3.828125 1.160156 -4.023438 0.953125 -4.296875 C 0.742188 -4.566406 0.640625 -4.929688 0.640625 -5.390625 C 0.640625 -5.785156 0.738281 -6.132812 0.9375 -6.4375 C 1.144531 -6.75 1.429688 -6.988281 1.796875 -7.15625 C 2.171875 -7.320312 2.59375 -7.40625 3.0625 -7.40625 C 3.75 -7.40625 4.3125 -7.234375 4.75 -6.890625 C 5.1875 -6.554688 5.429688 -6.101562 5.484375 -5.53125 L 4.4375 -5.53125 C 4.40625 -5.8125 4.257812 -6.054688 4 -6.265625 C 3.738281 -6.484375 3.394531 -6.59375 2.96875 -6.59375 C 2.570312 -6.59375 2.242188 -6.488281 1.984375 -6.28125 C 1.734375 -6.070312 1.609375 -5.785156 1.609375 -5.421875 C 1.609375 -5.148438 1.679688 -4.929688 1.828125 -4.765625 C 1.984375 -4.597656 2.171875 -4.46875 2.390625 -4.375 C 2.617188 -4.289062 2.929688 -4.191406 3.328125 -4.078125 C 3.804688 -3.953125 4.191406 -3.820312 4.484375 -3.6875 C 4.785156 -3.5625 5.039062 -3.363281 5.25 -3.09375 C 5.457031 -2.820312 5.5625 -2.457031 5.5625 -2 C 5.5625 -1.632812 5.46875 -1.296875 5.28125 -0.984375 C 5.09375 -0.671875 4.8125 -0.414062 4.4375 -0.21875 C 4.070312 -0.0195312 3.632812 0.078125 3.125 0.078125 Z M 3.125 0.078125 "/></g></g></g><g clip-path="url(#38a073a4c3)"><path fill="#4a90e2" d="M 99.671875 208 C 123.050781 204.554688 155.949219 199.3125 183.382812 199.636719 C 210.816406 199.964844 250.488281 207.121094 263.851562 209.945312 C 200.683594 202.550781 169 203.132812 99.671875 208 " fill-opacity="1" fill-rule="evenodd"/></g><g clip-path="url(#7f24bc2c82)"><path fill="#4a90e2" d="M 188.289062 102.324219 C 184.902344 101.6875 182.53125 101.273438 179.871094 101.226562 C 177.398438 99.828125 176.253906 95.300781 170.570312 94.90625 C 168.894531 94.753906 170.25 85.644531 169.59375 85.714844 C 167.953125 85.886719 161.046875 95.917969 160.757812 96.28125 C 157.5625 101.273438 157.175781 107.28125 154.035156 112.675781 C 151.921875 116.308594 150.574219 119.960938 145.261719 126.890625 C 122.710938 159.6875 107.085938 159.078125 112.03125 205.714844 C 112.132812 206.710938 161.570312 204.9375 162.136719 199.222656 C 162.703125 193.507812 140.828125 197.472656 142.730469 196.539062 C 169.121094 183.609375 157.828125 167.71875 153.90625 167.28125 C 155.507812 164.914062 158.101562 163.085938 159.777344 164.886719 C 163.253906 169.5 165.761719 187.820312 168.6875 193.484375 C 171.613281 199.152344 170.570312 202.070312 184.21875 199.296875 C 181.5 195.597656 182.414062 197.671875 178.917969 196.054688 C 176.878906 195.605469 173.976562 193.257812 173.144531 191.683594 C 171.671875 187.191406 170.164062 157.304688 170.765625 153.59375 C 171.523438 148.199219 173.359375 142.566406 170.753906 131.078125 C 169.804688 126.890625 170.523438 125.789062 171.851562 122.660156 C 173.734375 118.476562 175.320312 114.65625 180.105469 112.820312 C 183.320312 111.816406 186.085938 112.851562 188.867188 110.894531 C 191.386719 109.632812 192.523438 101.542969 188.289062 102.324219 " fill-opacity="1" fill-rule="nonzero"/></g><g clip-path="url(#dc33350900)"><path fill="#00bfa6" d="M 98.820312 208 C 122.199219 204.554688 155.101562 199.3125 182.53125 199.636719 C 209.964844 199.964844 249.640625 207.121094 263 209.945312 C 199.835938 202.550781 168.148438 203.132812 98.820312 208 " fill-opacity="1" fill-rule="evenodd"/></g><path fill="#00bfa6" d="M 202.363281 133.390625 C 203.371094 134.5 203.484375 134.796875 203 136.582031 C 202.429688 139.214844 201.589844 141.675781 201.160156 144.324219 C 200.027344 149.445312 199.640625 155.5 201.746094 159.5625 C 202.335938 160.617188 202.820312 161.382812 203.273438 162.421875 C 207.152344 169.660156 206.070312 173.082031 205.203125 180.925781 C 204.878906 183.867188 204.695312 186.832031 204.230469 189.753906 C 203.675781 194.792969 203.691406 196.554688 200.6875 196.792969 C 199.410156 196.785156 197.714844 196.746094 197.574219 198.003906 C 197.25 199.667969 198.183594 200.199219 198.960938 200.851562 C 198.386719 202.054688 198.621094 201.734375 199.050781 202.367188 C 201.964844 202.507812 204.894531 202.667969 207.839844 202.84375 C 209.378906 201.742188 210.613281 200.082031 211.648438 198.367188 L 214.457031 193.433594 C 214.582031 194.867188 214.742188 196.015625 215.320312 197.21875 C 215.550781 197.667969 215.910156 198.273438 216.300781 198.601562 C 216.410156 198.894531 216.535156 199.054688 216.785156 199.359375 C 217.035156 199.675781 217.1875 199.550781 217.28125 199.984375 C 214.085938 199.761719 209.726562 199.527344 209.628906 202.957031 C 222.984375 203.804688 236.488281 205.078125 249.074219 207.085938 C 250.800781 195.628906 253.085938 165.277344 240.84375 152.117188 C 238.609375 149.949219 231.257812 145.234375 226.675781 135.367188 C 226.128906 133.886719 226.8125 134.105469 226.828125 131.414062 C 226.917969 128.023438 225.933594 124.085938 224.390625 121.363281 C 223.222656 119.105469 222.457031 118.3125 220.074219 116.773438 C 219.019531 116.085938 218.363281 115.589844 217.925781 114.414062 C 217.269531 112.640625 215.566406 106.210938 213.015625 106.207031 C 211.175781 106.152344 210.75 111.351562 210.421875 113.015625 C 209.726562 118.042969 210.125 115.679688 205.710938 117.175781 C 202.765625 118.128906 204.265625 119.09375 201.480469 121.191406 C 199.597656 122.828125 195.921875 121.058594 196.671875 125.816406 C 197.578125 130.460938 200.738281 131.378906 202.363281 133.390625 " fill-opacity="1" fill-rule="nonzero"/></svg>