<svg width="28" height="28" viewBox="0 0 28 28" fill="none" xmlns="http://www.w3.org/2000/svg">
<path d="M4.1277 14.0511C4.1277 14.0511 3.30078 13.741 3.30078 12.3973C3.30078 11.0535 4.1277 10.7434 4.1277 10.7434M23.9739 13.5343C23.9739 13.5343 24.8008 13.3105 24.8008 12.3973C24.8008 11.484 23.9739 11.2602 23.9739 11.2602M14.0508 9.08956V15.7049M6.60847 9.08956V15.7049M21.9034 3.5192C21.9034 3.5192 17.4257 9.08956 13.2239 9.08956H4.95463C4.73531 9.08956 4.52498 9.17668 4.3699 9.33176C4.21483 9.48684 4.1277 9.69717 4.1277 9.91648V14.878C4.1277 15.0973 4.21483 15.3077 4.3699 15.4627C4.52498 15.6178 4.73531 15.7049 4.95463 15.7049H13.2239C17.4257 15.7049 21.9034 21.2986 21.9034 21.2986C22.2166 21.712 23.1469 21.4288 23.1469 20.7905V4.02465C23.1469 3.38844 22.2683 3.05199 21.9034 3.5192Z" stroke="#CBA662" stroke-width="1.65385" stroke-linecap="round" stroke-linejoin="round"/>
<path d="M8.26172 15.7049V24.3876C8.26172 24.4973 8.30528 24.6024 8.38282 24.68C8.46036 24.7575 8.56552 24.8011 8.67518 24.8011H11.4144C11.5439 24.8011 11.6716 24.7707 11.7873 24.7124C11.9029 24.654 12.0032 24.5693 12.0801 24.465C12.157 24.3608 12.2083 24.2399 12.23 24.1122C12.2516 23.9845 12.2429 23.8534 12.2046 23.7297C11.7715 22.3405 10.7425 20.774 10.7425 18.1857H11.5694C11.7887 18.1857 11.9991 18.0986 12.1541 17.9435C12.3092 17.7884 12.3963 17.5781 12.3963 17.3588V16.5318C12.3963 16.3125 12.3092 16.1022 12.1541 15.9471C11.9991 15.792 11.7887 15.7049 11.5694 15.7049H10.7425" stroke="#CBA662" stroke-width="1.65385" stroke-linecap="round" stroke-linejoin="round"/>
</svg>
